<?xml version="1.0" encoding="utf-8"?>
<!-- Generator: Adobe Illustrator 28.3.0, SVG Export Plug-In . SVG Version: 6.00 Build 0)  -->
<svg version="1.1" id="Layer_1" xmlns="http://www.w3.org/2000/svg" xmlns:xlink="http://www.w3.org/1999/xlink" x="0px" y="0px"
	 viewBox="0 0 21.22 21.22" style="enable-background:new 0 0 21.22 21.22;" xml:space="preserve">
<style type="text/css">
	.st0{fill:#929292;}
</style>
<path id="Path_17" class="st0" d="M20.51,10.22l-6.47-6.47c-0.36-0.36-0.95-0.36-1.31,0s-0.36,0.95,0,1.31l4.89,4.89H1.37
	c-0.51,0-0.92,0.41-0.92,0.92c0,0.51,0.41,0.92,0.92,0.92h16.25l-4.89,4.89c-0.36,0.36-0.36,0.95,0,1.31s0.95,0.36,1.31,0l6.47-6.47
	C20.87,11.17,20.87,10.58,20.51,10.22C20.51,10.22,20.51,10.22,20.51,10.22L20.51,10.22z"/>
</svg>
