<?xml version="1.0" encoding="utf-8"?>
<!-- Generator: Adobe Illustrator 28.3.0, SVG Export Plug-In . SVG Version: 6.00 Build 0)  -->
<svg version="1.1" id="Layer_1" xmlns="http://www.w3.org/2000/svg" xmlns:xlink="http://www.w3.org/1999/xlink" x="0px" y="0px"
	 viewBox="0 0 119.6 119.9" style="enable-background:new 0 0 119.6 119.9;" xml:space="preserve">
<style type="text/css">
	.st0{fill:#E6F0F8;}
	.st1{fill:#FF6161;}
	.st2{fill:#F04343;}
	.st3{fill:#BBCFEF;}
	.st4{fill:#CBDBF4;}
	.st5{fill:#FFFFFF;}
	.st6{fill:#FFCA6C;}
</style>
<g>
	<path class="st0" d="M49.6,115.4c-2.6,4.5-12.3,4.9-21.3-0.4c-9-5.3-13.4-13.4-10.7-17.9C23.5,87,55.2,105.8,49.6,115.4L49.6,115.4
		z"/>
	<path class="st1" d="M56.6,52.3L38,70.5c-0.2-0.2-3-4.5-7.5-7.3c-4.5-2.8-13.5-1.4-15.8-3c-2.3-1.7,8.8-8.5,10.4-11.4
		c0.4-0.7,1.2-5.6,1.3-7.7c0.1-2.2,2.3-2.4,2.3-2.4C43.5,37,51,45.4,51,45.4L56.6,52.3z"/>
	<path class="st2" d="M56.6,52.3L38,70.5c0,0-1.1-1.6-2.9-3.5L51,45.4L56.6,52.3z"/>
	<path class="st1" d="M111.2,62.4c-1.7,2.1-11.5,6-11.1,8.7c0.3,2.7,2.6,12.9-0.8,13.3c-3.3,0.4-17.6-7.7-20.3-5.9
		c-4.4,3-9.4,2.6-12.7,1.8c-2.2-0.5-3.6-1.2-3.6-1.2l15-21.5c0,0,2.7,0.7,5.2-0.7c2.5-1.4,8-3.7,13.4-2.4
		C101.6,55.7,112.9,60.3,111.2,62.4L111.2,62.4z"/>
	<path class="st2" d="M77.7,57.6L66.3,80.4c-2.2-0.5-3.6-1.2-3.6-1.2L77.7,57.6z"/>
	<path class="st3" d="M100.7,21.6L79.4,49.2L58.3,37.7l4.2-10l9.7-23.5c4.8-7.9,21.3-0.7,27.3,7.9C101.7,15.3,102.5,18.7,100.7,21.6
		L100.7,21.6z"/>
	<path class="st4" d="M99.5,12.1L84.3,31.8c-2,2.6-5.8,3-8.4,0.8c-3.6-3.1-8-4.9-13.4-4.9l9.7-23.5C77-3.7,93.5,3.4,99.5,12.1z"/>
	<path class="st1" d="M79.7,54.2L79.7,54.2L79.7,54.2c-0.2,0.7-0.8,1.6-1.3,2.2l-11.3,19L42.8,62.3c3.4-6.9,9.7-19.9,9.9-20.3
		c0.1-0.2,0.2-0.4,0.3-0.5c2.7-4.6,10.3-5.6,17.5-2.2C77.5,42.6,81.6,49.2,79.7,54.2L79.7,54.2z"/>
	<ellipse transform="matrix(0.4291 -0.9033 0.9033 0.4291 -31.4927 88.9435)" class="st1" cx="54.6" cy="69.4" rx="9.4" ry="13.9"/>
	<path class="st4" d="M48.3,101.8l-5.9,9.6l-18-11.9l6.8-6.5l7,2.1l1.7,0.9l6.9,0.5L48.3,101.8z"/>
	<path class="st3" d="M65.8,73l-15.9,41.5c3-10.4-24.8-25.3-32.2-18.6l27.3-34C49.5,57.4,68.3,68,65.8,73L65.8,73z"/>
	<path class="st4" d="M58,76.5l-11.2,29.3c-7.2-8-23.6-14.8-29.1-9.8l25.2-31.4C49.9,66,59.8,72.7,58,76.5L58,76.5z"/>
	<path class="st3" d="M48.4,115.4c-0.5-0.2-0.7-0.8-0.4-1.3c4.5-9.1-23.1-24.5-28.6-17.4c-0.8,1-2.4-0.2-1.6-1.2
		c6.9-9,37.6,8.1,31.9,19.4C49.5,115.5,48.9,115.7,48.4,115.4L48.4,115.4z"/>
	<path class="st4" d="M42.3,111.4c-1.5,2.5-6.8,2.7-11.8-0.2c-5-2.9-7.4-7.4-5.9-9.8C28,95.8,45.4,106.2,42.3,111.4L42.3,111.4z"/>
	<path class="st5" d="M101.6,59.8c-4.5-2-10.4-1.9-17-1C90.2,57.4,98.1,55.2,101.6,59.8L101.6,59.8z M34.7,63.1
		c-2.3-2.8-6.2-4-10.8-4.4c2-0.1,4.1-0.3,6,0.1C32.8,59.2,34.3,60.9,34.7,63.1L34.7,63.1z"/>
	<path class="st3" d="M16.5,104.6c-1.6-3.8-0.2-8.2,3.4-10.8c0.4-0.3,1.1-0.2,1.4,0.2c0.3,0.4,0.2,1.1-0.2,1.4
		c-3.3,2.4-3.8,6-2.8,8.3c5.6,10.7,21.2,16,27.8,12.1c6.1-3.6-0.6-11.3-7-14.3C33.7,99.5,29.6,99,27,100c-5.5,2.8,0.1,8.9,5.6,10.9
		c3.1,1.2,6,1.4,7.6,0.4c2.7-1.8-1.1-5.8-4.4-6.5c-1.5-0.4-2.8-0.1-3.3,0.4c-0.7,0.6,1.2,1.5,1.7,1.3c0.1,0,0.3-0.1,0.4-0.2
		c0.5-0.3,1.1-0.1,1.4,0.3c0,0,0,0,0,0c0.8,1.3-1.6,2.7-4.1,1.2c-1.8-1.1-1.9-3-0.8-4.1c1-1,3-1.4,5.1-0.9c3.4,0.8,6.6,3.9,6.9,6.7
		c-0.3,6.9-13.1,5.4-19.2-3c-2.2-3.6-1.1-6.8,2.3-8.5c3.2-1.3,7.7-0.8,13.7,1.5c6.6,3.1,11.1,8.8,10.6,13.2
		c-0.4,1.9-1.5,3.5-3.3,4.6C39.3,122.2,22.6,116.1,16.5,104.6L16.5,104.6z"/>
	<path class="st6" d="M71.6,44.9c0.2,1.1,1,2,2.1,2.4c1.8,0.4,2.8,2.8,1.6,4.7c-0.7,1.1-0.7,2.2-0.2,3.2c0.8,1.5,0.2,3.4-1.3,4.1
		c-0.3,0.1-0.6,0.2-0.9,0.3c-1.2,0.2-2.2,1.3-2.4,2.1c-0.8,2.2-3.1,2.7-4.7,1.6c-1.1-0.7-2.2-0.7-3.1-0.2c-1.5,0.8-3.3,0.2-4.1-1.2
		c-0.2-0.3-0.3-0.6-0.3-0.9c-0.2-0.9-0.8-1.8-1.6-2.2c-0.4-0.2-0.5-0.1-0.9-0.4c-1.6-0.8-2.2-2.9-1.1-4.5c0.7-1,0.7-2.2,0.2-3.2
		c-0.9-1.8,0.2-4.1,2.2-4.4c1-0.2,1.8-0.8,2.2-1.7c0.2-0.4,0.2-0.6,0.4-0.9c0.8-1.6,2.9-2.2,4.5-1.1c1,0.6,2.1,0.7,3.1,0.2
		c1.5-0.8,3.3-0.2,4.1,1.3C71.5,44.2,71.6,44.5,71.6,44.9z"/>
	<ellipse transform="matrix(0.467 -0.8843 0.8843 0.467 -11.6801 85.8892)" class="st5" cx="65.4" cy="52.6" rx="7.1" ry="7"/>
	<path class="st6" d="M66.8,50.7l1.9,0.6c0.2,0.1,0.3,0.3,0.2,0.5c0,0.1-0.1,0.1-0.1,0.2c-1.8,1.3-1.8,1.3-1.8,1.5l0,2
		c0,0.2-0.2,0.4-0.4,0.4c-0.1,0-0.2,0-0.2-0.1c-1.6-1.2-1.7-1.3-2-1.2l-1.9,0.7c-0.2,0.1-0.4,0-0.5-0.2c0-0.1,0-0.2,0-0.2
		c0.7-2.1,0.7-2.1,0.6-2.3l-1.2-1.6c-0.1-0.2-0.1-0.4,0.1-0.5c0.1,0,0.1-0.1,0.2-0.1c2.2,0,2.2,0,2.3-0.2l1.2-1.7
		c0.1-0.2,0.3-0.2,0.5-0.1c0.1,0,0.1,0.1,0.1,0.2l0.6,1.9C66.6,50.5,66.7,50.6,66.8,50.7L66.8,50.7z"/>
</g>
</svg>
